<svg id="Layer_1" data-name="Layer 1" xmlns="http://www.w3.org/2000/svg" xmlns:xlink="http://www.w3.org/1999/xlink" viewBox="0 0 512 512"><defs><linearGradient id="linear-gradient" x1="256" x2="256" y2="512" gradientUnits="userSpaceOnUse"><stop offset="0" stop-color="#e9ebf5"/><stop offset="0.76" stop-color="#b0c7e1"/><stop offset="1" stop-color="#7697c6"/></linearGradient><linearGradient id="linear-gradient-2" x1="256" y1="420.59" x2="256" y2="91.41" gradientUnits="userSpaceOnUse"><stop offset="0" stop-color="#000013"/><stop offset="1" stop-color="#005c92"/></linearGradient></defs><title>edit</title><path d="M256,512c141,0,256-115,256-256S397,0,256,0,0,115,0,256,115,512,256,512Z" fill-rule="evenodd" fill="url(#linear-gradient)"/><path d="M141.25,329,268.83,167.23,141.25,329ZM184,362.54,311.55,200.79,184,362.54ZM238.67,150l24.62,19.83L141.2,324.59c-2.4-13.28-6.11-24.11-11.9-36.74l-1.1-.88.44-.54v0h0L238.67,150l34.64-43c13.47-16.71,36.64-20.6,51.48-8.64l48.43,39c14.84,12,16,35.42,2.49,52.13l-34.33,42.58L230.6,369.48l-.76-.62-.11.4c-13.69-8-25.89-9.87-41.11-8.14L309.9,207.35l-4.31-3.46L185,356.85c-4.57-21.66-12.76-31.26-40.08-28L267.59,173.26l4.16,3.36,33.84,27.27,4.31,3.46h0l31.16,25.11.31-.38,14.75-18.3L253.73,131.27,238.67,150Zm9-10.73,102,82.25-1,1.27-1,1.27-102-82.25,1-1.27h0l1-1.27ZM116.51,344.79,105,397.69c-5.46,25,.5,27.36,22.71,17.42l49-21.89C146,381.16,132.11,370.61,116.51,344.79Z" fill="#fff" fill-rule="evenodd"/><path d="M153.15,329,280.73,167.23,153.15,329Zm42.73,33.57L323.46,200.79,195.88,362.54ZM250.57,150l24.62,19.83L153.09,324.59c-2.39-13.28-6.11-24.11-11.89-36.74l-1.1-.88.44-.54,0,0h0L250.57,150l34.63-43c13.48-16.71,36.64-20.6,51.48-8.64l48.43,39c14.84,12,16,35.42,2.48,52.13l-34.32,42.58L242.51,369.48l-.77-.62-.11.4c-13.7-8-25.9-9.87-41.11-8.14L321.81,207.35l-4.31-3.46-120.65,153c-4.57-21.66-12.76-31.26-40.08-28L279.49,173.26l4.17,3.36,33.84,27.27,4.31,3.46h0L353,232.46l.31-.38L368,213.78l-102.4-82.51L250.57,150Zm9-10.73,102,82.25-1,1.27-1,1.27-102-82.25,1-1.27h0l1-1.27ZM128.42,344.79l-11.54,52.9c-5.46,25,.51,27.36,22.72,17.42l48.94-21.89C157.89,381.16,144,370.61,128.42,344.79Z" fill-rule="evenodd" fill="url(#linear-gradient-2)"/></svg>